<?xml version="1.0" standalone="yes"?>
<svg xmlns="http://www.w3.org/2000/svg" width="417" height="417">
<path style="fill:#ffffff; stroke:none;" d="M0 0L0 417L417 417L417 0L0 0z"/>
<path style="fill:#f5c19d; stroke:none;" d="M289 27C295.194 29.5991 304.314 28 311 28L359 28C352.806 25.4009 343.686 27 337 27L289 27z"/>
<path style="fill:#ed9f63; stroke:none;" d="M286 28L287 29L286 28z"/>
<path style="fill:#f78117; stroke:none;" d="M270 60C274.194 60 281.784 61.465 285.363 58.9722C289.445 56.1285 291.108 49.8852 295.09 46.5185C298.352 43.7611 304.503 42.5982 306.972 39.2979C309.003 36.5831 308 31.2052 308 28C300.916 28 291.644 26.4355 285.001 29.2284C274.909 33.4709 271.451 50.1763 270 60z"/>
<path style="fill:#f5791b; stroke:none;" d="M308 28L308 40C324.874 37.007 343.546 52.1274 341.823 70C340.911 79.4496 333.577 83.8979 330.603 92C328.516 97.6865 330 105.988 330 112C334.671 111.987 340.353 112.153 342.397 106.956C344.959 100.441 343 89.9533 343 83L343 28L308 28z"/>
<path style="fill:#f5771d; stroke:none;" d="M343 28L343 107C347.717 102.292 348.727 95.1885 350.659 89C354.702 76.0466 358.298 62.9534 362.341 50C363.987 44.7267 368.095 36.319 364.258 31.2284C360.173 25.8093 348.959 28 343 28z"/>
<path style="fill:#f3a977; stroke:none;" d="M361 28L362 29L361 28z"/>
<path style="fill:#eda163; stroke:none;" d="M282 30L283 31L282 30z"/>
<path style="fill:#f7cfb3; stroke:none;" d="M365 32L366 33L365 32z"/>
<path style="fill:#f1c19b; stroke:none;" d="M277 35L278 36L277 35z"/>
<path style="fill:#efb587; stroke:none;" d="M276 37L277 38L276 37z"/>
<path style="fill:#ed9755; stroke:none;" d="M310 39C312.052 39.8742 313.747 39.9528 316 40C313.948 39.1258 312.253 39.0472 310 39z"/>
<path style="fill:#f3b389; stroke:none;" d="M365 39L366 40L365 39z"/>
<path style="fill:#efb587; stroke:none;" d="M275 40L276 41L275 40z"/>
<path style="fill:#f3c19b; stroke:none;" d="M306 40L307 41L306 40z"/>
<path style="fill:#efa975; stroke:none;" d="M319.667 40.3333C319.222 40.7777 320.278 40.7222 320.333 40.6667C320.778 40.2222 319.722 40.2778 319.667 40.3333M323 41L324 42L323 41z"/>
<path style="fill:#ed9f63; stroke:none;" d="M300 42L301 43L300 42z"/>
<path style="fill:#f3c19b; stroke:none;" d="M325 42L326 43L325 42z"/>
<path style="fill:#f19d65; stroke:none;" d="M364 42L365 43L364 42z"/>
<path style="fill:#f3cfb1; stroke:none;" d="M274 43L275 44L274 43z"/>
<path style="fill:#f1b387; stroke:none;" d="M327 43L328 44L327 43z"/>
<path style="fill:#f5cfb3; stroke:none;" d="M297 44L298 45L297 44z"/>
<path style="fill:#f1b387; stroke:none;" d="M330 45L331 46L330 45z"/>
<path style="fill:#ed9f63; stroke:none;" d="M294 46L295 47L294 46z"/>
<path style="fill:#f7cfb3; stroke:none;" d="M331 46L332 47L331 46M363 46L364 47L363 46z"/>
<path style="fill:#eda975; stroke:none;" d="M293 47L294 48L293 47M292 48L293 49L292 48z"/>
<path style="fill:#f5cfb3; stroke:none;" d="M334 49L335 50L334 49z"/>
<path style="fill:#f3b389; stroke:none;" d="M362 49L363 50L362 49z"/>
<path style="fill:#efb587; stroke:none;" d="M272 50L273 51L272 50z"/>
<path style="fill:#f3c19b; stroke:none;" d="M335 50L336 51L335 50z"/>
<path style="fill:#f1c19b; stroke:none;" d="M289 52L290 53L289 52z"/>
<path style="fill:#f19d65; stroke:none;" d="M361 52L362 53L361 52z"/>
<path style="fill:#f3cfb1; stroke:none;" d="M271 53L272 54L271 53z"/>
<path style="fill:#f3c19b; stroke:none;" d="M337 53L338 54L337 53M311 56C312.506 56.683 313.315 56.8259 315 57C313.494 56.3169 312.685 56.1741 311 56z"/>
<path style="fill:#f7cfb3; stroke:none;" d="M360 56L361 57L360 56z"/>
<path style="fill:#f1c19b; stroke:none;" d="M308 57L309 58L308 57z"/>
<path style="fill:#f57d19; stroke:none;" d="M309.004 57.7423C295.855 62.814 303.791 83.2 316.996 78.1065C330.243 72.9969 322.135 52.6774 309.004 57.7423z"/>
<path style="fill:#efa975; stroke:none;" d="M317 57L318 58L317 57z"/>
<path style="fill:#f3c19b; stroke:none;" d="M339 57L340 58L339 57z"/>
<path style="fill:#efb587; stroke:none;" d="M286 58L287 59L286 58z"/>
<path style="fill:#f3c19b; stroke:none;" d="M319 58L320 59L319 58z"/>
<path style="fill:#efb587; stroke:none;" d="M305 59L306 60L305 59z"/>
<path style="fill:#efa975; stroke:none;" d="M320 59L321 60L320 59z"/>
<path style="fill:#f3b389; stroke:none;" d="M359 59L360 60L359 59z"/>
<path style="fill:#f1c19b; stroke:none;" d="M270 60C274.724 61.9822 280.91 61 286 61C281.276 59.0178 275.09 60 270 60M304 60L305 61L304 60z"/>
<path style="fill:#efa975; stroke:none;" d="M321 60L322 61L321 60z"/>
<path style="fill:#f5cfb3; stroke:none;" d="M340 60L341 61L340 60M322 61L323 62L322 61z"/>
<path style="fill:#ef9d65; stroke:none;" d="M358 62L359 63L358 62z"/>
<path style="fill:#f3c19b; stroke:none;" d="M323 63L324 64L323 63z"/>
<path style="fill:#ef9d65; stroke:none;" d="M341.333 63.6667C341.278 63.7222 341.222 64.7777 341.667 64.3333C341.722 64.2778 341.778 63.2221 341.333 63.6667z"/>
<path style="fill:#f3c19b; stroke:none;" d="M341 65L341 71C341.951 68.7147 341.951 67.2852 341 65z"/>
<path style="fill:#f7cfb3; stroke:none;" d="M357 66L358 67L357 66z"/>
<path style="fill:#f3b389; stroke:none;" d="M356 69L357 70L356 69z"/>
<path style="fill:#eda975; stroke:none;" d="M302 71L303 72L302 71z"/>
<path style="fill:#ed9555; stroke:none;" d="M341.333 71.6667C341.278 71.7222 341.222 72.7777 341.667 72.3333C341.722 72.2778 341.778 71.2221 341.333 71.6667z"/>
<path style="fill:#ef9d65; stroke:none;" d="M355 72L356 73L355 72z"/>
<path style="fill:#f5cfb3; stroke:none;" d="M321 75L322 76L321 75M320 76L321 77L320 76z"/>
<path style="fill:#ed9d65; stroke:none;" d="M340 76L341 77L340 76z"/>
<path style="fill:#f4cdb3; stroke:none;" d="M354 76L355 77L354 76z"/>
<path style="fill:#f78317; stroke:none;" d="M264 78C262.295 85.437 259.508 92.5797 257.749 100C256.944 103.398 256.48 107.83 259.434 110.397C263.816 114.206 275.488 112 281 112L281 78L264 78z"/>
<path style="fill:#f77f19; stroke:none;" d="M281 78L281 112L330 112L330 92C324.922 93.4622 320.356 96.306 315 96.8225C302.957 97.984 291.001 88.9077 287 78L281 78z"/>
<path style="fill:#eda975; stroke:none;" d="M316 78L317 79L316 78z"/>
<path style="fill:#efa775; stroke:none;" d="M353 79L354 80L353 79z"/>
<path style="fill:#edb587; stroke:none;" d="M263 80L264 81L263 80z"/>
<path style="fill:#eba974; stroke:none;" d="M287 80L288 81L287 80z"/>
<path style="fill:#ef9d65; stroke:none;" d="M352 82L353 83L352 82z"/>
<path style="fill:#f3cfb1; stroke:none;" d="M262 83L263 84L262 83z"/>
<path style="fill:#f1b387; stroke:none;" d="M336 84L337 85L336 84z"/>
<path style="fill:#eb9f63; stroke:none;" d="M290 85L291 86L290 85z"/>
<path style="fill:#f1c19b; stroke:none;" d="M291 86L292 87L291 86z"/>
<path style="fill:#f3bf9d; stroke:none;" d="M351 86L352 87L351 86z"/>
<path style="fill:#eba974; stroke:none;" d="M261 87L262 88L261 87z"/>
<path style="fill:#f3cfb1; stroke:none;" d="M292 87L293 88L292 87M293 88L294 89L293 88z"/>
<path style="fill:#f3cfb3; stroke:none;" d="M294 89L295 90L294 89z"/>
<path style="fill:#efa775; stroke:none;" d="M350 89L351 90L350 89z"/>
<path style="fill:#ebb587; stroke:none;" d="M260 90L261 91L260 90z"/>
<path style="fill:#eba974; stroke:none;" d="M295 90L296 91L295 90z"/>
<path style="fill:#efb387; stroke:none;" d="M329 91L330 92L329 91z"/>
<path style="fill:#f1c19b; stroke:none;" d="M298 92L299 93L298 92z"/>
<path style="fill:#ed9d65; stroke:none;" d="M349 92L350 93L349 92z"/>
<path style="fill:#f1cfb1; stroke:none;" d="M259 93L260 94L259 93z"/>
<path style="fill:#f1c19b; stroke:none;" d="M302 94L303 95L302 94M305 95L306 96L305 95z"/>
<path style="fill:#eb9d64; stroke:none;" d="M321 95L322 96L321 95M308.667 96.3333C308.222 96.7777 309.278 96.7222 309.333 96.6667C309.778 96.2222 308.722 96.2778 308.667 96.3333z"/>
<path style="fill:#f1bf9b; stroke:none;" d="M310 96C312.052 96.8742 313.747 96.9528 316 97C313.948 96.1258 312.253 96.0472 310 96z"/>
<path style="fill:#eb9555; stroke:none;" d="M316.667 96.3333C316.222 96.7777 317.278 96.7222 317.333 96.6667C317.778 96.2222 316.722 96.2778 316.667 96.3333z"/>
<path style="fill:#f3bf9d; stroke:none;" d="M348 96L349 97L348 96z"/>
<path style="fill:#e9a973; stroke:none;" d="M258 97L259 98L258 97z"/>
<path style="fill:#efa775; stroke:none;" d="M347 99L348 100L347 99z"/>
<path style="fill:#ebb585; stroke:none;" d="M257 100L258 101L257 100z"/>
<path style="fill:#efa775; stroke:none;" d="M346 102L347 103L346 102z"/>
<path style="fill:#ed9d65; stroke:none;" d="M345 104L346 105L345 104z"/>
<path style="fill:#f4cdb3; stroke:none;" d="M343 107L344 108L343 107M342 108L343 109L342 108M341 109L342 110L341 109z"/>
<path style="fill:#eb8129; stroke:none;" d="M262 112C268.436 114.701 278.049 113 285 113L335 113C328.564 110.299 318.951 112 312 112L262 112z"/>
<path style="fill:#efb387; stroke:none;" d="M335 112L336 113L335 112z"/>
<path style="fill:#e59753; stroke:none;" d="M262 119C263.248 119.685 263.548 119.749 265 120C263.752 119.315 263.452 119.251 262 119z"/>
<path style="fill:#eb8129; stroke:none;" d="M265 119C271.194 121.599 280.314 120 287 120L334 120C327.806 117.401 318.686 119 312 119L265 119z"/>
<path style="fill:#efb387; stroke:none;" d="M334 119L335 120L334 119z"/>
<path style="fill:#e9c199; stroke:none;" d="M161 120L162 121L161 120z"/>
<path style="fill:#fb910d; stroke:none;" d="M145 154C149.262 154 155.69 155.205 159.621 153.397C164.762 151.032 168.1 143.224 173 139.8C176.015 137.694 182.721 136.927 184.397 133.57C186.165 130.027 185 123.887 185 120C177.743 120 167.812 118.251 161 121.009C150.089 125.428 145.93 143.34 145 154z"/>
<path style="fill:#f98b11; stroke:none;" d="M185 120L185 135C192.705 135.064 200.041 137.04 205.985 142.213C212.584 147.955 213.407 153.966 223 154L223 120L185 120z"/>
<path style="fill:#f98913; stroke:none;" d="M223 120L223 154C225.934 154 230.804 154.888 233.272 152.972C235.208 151.47 235.651 148.196 236.341 146C238.303 139.761 244.206 128.074 238.566 122.434C234.855 118.722 227.774 120 223 120z"/>
<path style="fill:#edc19b; stroke:none;" d="M236 120L237 121L236 120M259 120L260 121L259 120z"/>
<path style="fill:#f78515; stroke:none;" d="M244 154C248.117 154 253.951 155.05 257.79 153.397C260.481 152.238 261.825 149.198 263.528 146.999C265.524 144.421 268.249 142.127 269.397 139C271.389 133.573 270 125.734 270 120C265.964 120 261.694 119.596 258.015 121.573C248.405 126.734 245.901 144.201 244 154z"/>
<path style="fill:#f57d19; stroke:none;" d="M270 120L270 139C276.667 137.094 282.814 133.226 290 134.673C314.557 139.618 324.131 170.54 302.996 186.072C299.697 188.496 295.967 190.223 292 191.239C284.021 193.283 277.22 189.962 270 187L270 204L299 204C304 204 309.527 204.688 313.996 201.991C320.803 197.882 322.353 190.08 324.424 183C328.429 169.308 332.62 155.664 336.72 142C338.355 136.549 342.994 126.32 337.566 121.603C333.608 118.163 323.916 120 319 120L270 120z"/>
<path style="fill:#e3ab70; stroke:none;" d="M159 121L160 122L159 121z"/>
<path style="fill:#edcfaf; stroke:none;" d="M157 122L158 123L157 122z"/>
<path style="fill:#e79f61; stroke:none;" d="M256 122L257 123L256 122z"/>
<path style="fill:#e1ab6f; stroke:none;" d="M156 123L157 124L156 123z"/>
<path style="fill:#eda775; stroke:none;" d="M339 123L340 124L339 123z"/>
<path style="fill:#e1ab6f; stroke:none;" d="M155 124L156 125L155 124z"/>
<path style="fill:#edc19b; stroke:none;" d="M240 124L241 125L240 124z"/>
<path style="fill:#e1ab6f; stroke:none;" d="M154 125L155 126L154 125z"/>
<path style="fill:#f1bf9d; stroke:none;" d="M340 125L340 130C340.83 127.97 340.83 127.03 340 125z"/>
<path style="fill:#e7c199; stroke:none;" d="M153 126L154 127L153 126z"/>
<path style="fill:#e9b385; stroke:none;" d="M252 126L253 127L252 126z"/>
<path style="fill:#e58b39; stroke:none;" d="M250.333 130.667C250.278 130.722 250.222 131.778 250.667 131.333C250.722 131.278 250.778 130.222 250.333 130.667z"/>
<path style="fill:#efcfb1; stroke:none;" d="M240 132L241 133L240 132z"/>
<path style="fill:#eda775; stroke:none;" d="M339 132L340 133L339 132z"/>
<path style="fill:#edc19b; stroke:none;" d="M249 133L250 134L249 133z"/>
<path style="fill:#e79553; stroke:none;" d="M283 134C285.332 134.985 287.457 134.981 290 135C287.668 134.015 285.543 134.019 283 134z"/>
<path style="fill:#edcfb1; stroke:none;" d="M183.667 135.333C183.222 135.778 184.278 135.722 184.333 135.667C184.778 135.222 183.722 135.278 183.667 135.333z"/>
<path style="fill:#e7b585; stroke:none;" d="M191.667 135.333C191.222 135.778 192.278 135.722 192.333 135.667C192.778 135.222 191.722 135.278 191.667 135.333z"/>
<path style="fill:#e9b385; stroke:none;" d="M239 135L240 136L239 135z"/>
<path style="fill:#ebb387; stroke:none;" d="M279 135L280 136L279 135M293 135L294 136L293 135z"/>
<path style="fill:#df9133; stroke:none;" d="M149.333 136.667C149.278 136.722 149.222 137.778 149.667 137.333C149.722 137.278 149.778 136.222 149.333 136.667z"/>
<path style="fill:#edcfb1; stroke:none;" d="M179 136L180 137L179 136z"/>
<path style="fill:#e7b585; stroke:none;" d="M196 136L197 137L196 136z"/>
<path style="fill:#edbf9b; stroke:none;" d="M276 136L277 137L276 136z"/>
<path style="fill:#efbf9b; stroke:none;" d="M296 136L297 137L296 136z"/>
<path style="fill:#f4cdb3; stroke:none;" d="M338 136L339 137L338 136z"/>
<path style="fill:#e3ab70; stroke:none;" d="M176 137L177 138L176 137z"/>
<path style="fill:#e9c199; stroke:none;" d="M174 138L175 139L174 138z"/>
<path style="fill:#e7a973; stroke:none;" d="M238 138L239 139L238 138z"/>
<path style="fill:#e7c199; stroke:none;" d="M148 139L149 140L148 139z"/>
<path style="fill:#e9b387; stroke:none;" d="M270 139L271 140L270 139z"/>
<path style="fill:#ebb387; stroke:none;" d="M302 139L303 140L302 139z"/>
<path style="fill:#efb187; stroke:none;" d="M337 139L338 140L337 139z"/>
<path style="fill:#edcfaf; stroke:none;" d="M171 140L172 141L171 140z"/>
<path style="fill:#e3a971; stroke:none;" d="M204 140L205 141L204 140z"/>
<path style="fill:#e38b39; stroke:none;" d="M247.333 140.667C247.278 140.722 247.222 141.778 247.667 141.333C247.722 141.278 247.778 140.222 247.333 140.667z"/>
<path style="fill:#efcfb1; stroke:none;" d="M205 141L206 142L205 141M237 142L238 143L237 142z"/>
<path style="fill:#eba775; stroke:none;" d="M336 142L337 143L336 142z"/>
<path style="fill:#ebbf9b; stroke:none;" d="M246 143L247 144L246 143z"/>
<path style="fill:#e9b385; stroke:none;" d="M236 145L237 146L236 145z"/>
<path style="fill:#e3b583; stroke:none;" d="M146 146L147 147L146 146z"/>
<path style="fill:#e9c19b; stroke:none;" d="M210 146L211 147L210 146z"/>
<path style="fill:#f1cdb2; stroke:none;" d="M263 146L264 147L263 146M309 146L310 147L309 146z"/>
<path style="fill:#f4cdb3; stroke:none;" d="M335 146L336 147L335 146z"/>
<path style="fill:#edcfaf; stroke:none;" d="M164 147L165 148L164 147z"/>
<path style="fill:#e99d63; stroke:none;" d="M310 147L311 148L310 147z"/>
<path style="fill:#e5a973; stroke:none;" d="M235 148L236 149L235 148z"/>
<path style="fill:#ebcfaf; stroke:none;" d="M145 149L146 150L145 149z"/>
<path style="fill:#e9c19b; stroke:none;" d="M212 149L213 150L212 149z"/>
<path style="fill:#edbf9b; stroke:none;" d="M261 149L262 150L261 149z"/>
<path style="fill:#efbf9b; stroke:none;" d="M311 149L312 150L311 149z"/>
<path style="fill:#edb387; stroke:none;" d="M334 149L335 150L334 149z"/>
<path style="fill:#e1ab6f; stroke:none;" d="M162 150L163 151L162 150z"/>
<path style="fill:#e38b37; stroke:none;" d="M244.333 150.667C244.278 150.722 244.222 151.778 244.667 151.333C244.722 151.278 244.778 150.222 244.333 150.667z"/>
<path style="fill:#e9c19b; stroke:none;" d="M213 151L214 152L213 151z"/>
<path style="fill:#edbf9b; stroke:none;" d="M260 151L261 152L260 151z"/>
<path style="fill:#efbf9b; stroke:none;" d="M312 151L313 152L312 151z"/>
<path style="fill:#dfa15f; stroke:none;" d="M161 152L162 153L161 152z"/>
<path style="fill:#e9c199; stroke:none;" d="M185.667 152.333C185.222 152.778 186.278 152.722 186.333 152.667C186.778 152.222 185.722 152.278 185.667 152.333z"/>
<path style="fill:#e3a971; stroke:none;" d="M187 152C188.248 152.685 188.548 152.749 190 153C188.752 152.315 188.452 152.251 187 152z"/>
<path style="fill:#efcfb1; stroke:none;" d="M234 152L235 153L234 152z"/>
<path style="fill:#f1cdb2; stroke:none;" d="M283 152L284 153L283 152z"/>
<path style="fill:#e59553; stroke:none;" d="M284 152C285.769 152.779 287.036 152.912 289 153C287.231 152.221 285.964 152.088 284 152z"/>
<path style="fill:#f1cdb2; stroke:none;" d="M289 152L290 153L289 152z"/>
<path style="fill:#eba775; stroke:none;" d="M333 152L334 153L333 152z"/>
<path style="fill:#dd9b4d; stroke:none;" d="M144.333 153.667C144.278 153.722 144.222 154.778 144.667 154.333C144.722 154.278 144.778 153.222 144.333 153.667z"/>
<path style="fill:#f98f0f; stroke:none;" d="M183.015 153.742C170.47 158.685 179.137 179.329 191.985 173.991C205.607 168.33 196.44 148.453 183.015 153.742z"/>
<path style="fill:#e3a971; stroke:none;" d="M192 153L193 154L192 153M214 153L215 154L214 153z"/>
<path style="fill:#f3ddc9; stroke:none;" d="M243.333 153.667C243.278 153.722 243.222 154.778 243.667 154.333C243.722 154.278 243.778 153.222 243.333 153.667z"/>
<path style="fill:#e59f61; stroke:none;" d="M259 153L260 154L259 153z"/>
<path style="fill:#e7a775; stroke:none;" d="M281 153L282 154L281 153z"/>
<path style="fill:#f78117; stroke:none;" d="M282.015 153.742C269.361 158.732 278.044 178.258 290.995 173.397C303.713 168.623 295.275 148.514 282.015 153.742z"/>
<path style="fill:#e99d63; stroke:none;" d="M313 153L314 154L313 153z"/>
<path style="fill:#e58d1f; stroke:none;" d="M145 154C149.724 155.982 155.91 155 161 155C156.276 153.018 150.09 154 145 154z"/>
<path style="fill:#edcfb1; stroke:none;" d="M194 154L195 155L194 154z"/>
<path style="fill:#e78525; stroke:none;" d="M215 154C220.469 156.295 228.099 155 234 155C228.531 152.705 220.901 154 215 154z"/>
<path style="fill:#ebbf9b; stroke:none;" d="M244 154C248.471 155.876 254.183 155 259 155C254.529 153.124 248.817 154 244 154z"/>
<path style="fill:#f1cdb2; stroke:none;" d="M279 154L280 155L279 154M293 154L294 155L293 154z"/>
<path style="fill:#e3a971; stroke:none;" d="M195 155L196 156L195 155z"/>
<path style="fill:#f1cdb2; stroke:none;" d="M278 155L279 156L278 155z"/>
<path style="fill:#e9a775; stroke:none;" d="M294 155L295 156L294 155z"/>
<path style="fill:#e9c199; stroke:none;" d="M196 156L197 157L196 156z"/>
<path style="fill:#f1cdb2; stroke:none;" d="M277 156L278 157L277 156z"/>
<path style="fill:#edbf9b; stroke:none;" d="M295 156L296 157L295 156z"/>
<path style="fill:#f4cdb3; stroke:none;" d="M332 156L333 157L332 156z"/>
<path style="fill:#f5ddcb; stroke:none;" d="M314.333 157.667C314.278 157.722 314.222 158.778 314.667 158.333C314.722 158.278 314.778 157.222 314.333 157.667z"/>
<path style="fill:#e7a973; stroke:none;" d="M276 158L277 159L276 158z"/>
<path style="fill:#edb187; stroke:none;" d="M331 159L332 160L331 159z"/>
<path style="fill:#edbf9b; stroke:none;" d="M297 160L298 161L297 160z"/>
<path style="fill:#e7c199; stroke:none;" d="M176 161L176 166C176.83 163.969 176.83 163.03 176 161z"/>
<path style="fill:#e59553; stroke:none;" d="M275 161L275 166C275.83 163.97 275.83 163.03 275 161z"/>
<path style="fill:#e78739; stroke:none;" d="M297 161L297 166C297.83 163.97 297.83 163.03 297 161z"/>
<path style="fill:#eba775; stroke:none;" d="M330 162L331 163L330 162z"/>
<path style="fill:#edbf9b; stroke:none;" d="M297 166L298 167L297 166z"/>
<path style="fill:#f4cdb3; stroke:none;" d="M329 166L330 167L329 166z"/>
<path style="fill:#edcfb1; stroke:none;" d="M198 167L199 168L198 167z"/>
<path style="fill:#e3b583; stroke:none;" d="M177 168L178 169L177 168z"/>
<path style="fill:#e7a775; stroke:none;" d="M276 168L277 169L276 168z"/>
<path style="fill:#e79b63; stroke:none;" d="M314.333 168.667C314.278 168.722 314.222 169.778 314.667 169.333C314.722 169.278 314.778 168.222 314.333 168.667z"/>
<path style="fill:#e9c199; stroke:none;" d="M197 169L198 170L197 169z"/>
<path style="fill:#ebb187; stroke:none;" d="M328 169L329 170L328 169z"/>
<path style="fill:#efcdb2; stroke:none;" d="M277 170L278 171L277 170z"/>
<path style="fill:#edbf9b; stroke:none;" d="M295 170L296 171L295 170z"/>
<path style="fill:#edcfb1; stroke:none;" d="M179 171L180 172L179 171z"/>
<path style="fill:#efcdb2; stroke:none;" d="M278 171L279 172L278 171z"/>
<path style="fill:#e7a775; stroke:none;" d="M294 171L295 172L294 171z"/>
<path style="fill:#dd994d; stroke:none;" d="M139 172C145.202 174.603 154.298 173 161 173C154.798 170.397 145.702 172 139 172z"/>
<path style="fill:#edcfb1; stroke:none;" d="M180 172L181 173L180 172z"/>
<path style="fill:#e19751; stroke:none;" d="M215 172C218.959 173.661 223.737 173 228 173C224.041 171.339 219.263 172 215 172z"/>
<path style="fill:#f78515; stroke:none;" d="M270 204C270 198.98 271.29 191.877 269.397 187.17C268.276 184.381 265.536 182.378 263.788 179.985C261.989 177.523 260.763 173.896 257.787 172.603C254.957 171.374 251.011 172 248 172C245.266 172 241.039 171.267 238.703 173.028C236.67 174.56 236.247 177.723 235.576 180C233.894 185.706 228.111 198.654 235.148 202.821C238.207 204.632 242.6 204 246 204L270 204z"/>
<path style="fill:#e5a973; stroke:none;" d="M259 172L260 173L259 172z"/>
<path style="fill:#efcdb2; stroke:none;" d="M279 172L280 173L279 172z"/>
<path style="fill:#f1cdb2; stroke:none;" d="M293 172L294 173L293 172z"/>
<path style="fill:#ebb387; stroke:none;" d="M313 172L314 173L313 172z"/>
<path style="fill:#eba775; stroke:none;" d="M327 172L328 173L327 172z"/>
<path style="fill:#fb930d; stroke:none;" d="M138 173C136.86 180.757 130.004 192.257 132.782 199.956C134.792 205.528 141.195 204.998 146 205L185 205C185 201.685 185.976 196.365 183.972 193.51C181.524 190.024 174.509 188.845 171.004 186.236C166.594 182.954 164.626 176.966 160.366 174.028C155.578 170.726 143.688 173 138 173z"/>
<path style="fill:#e9c199; stroke:none;" d="M193 173L194 174L193 173z"/>
<path style="fill:#e9c19b; stroke:none;" d="M214 173L215 174L214 173z"/>
<path style="fill:#f98f0f; stroke:none;" d="M184 192C185.033 196.338 185 200.562 185 205C193.065 205 204.444 207.051 212 203.991C223.201 199.454 225.601 183.466 228 173C224.299 173 218.646 171.964 215.39 174.028C212.378 175.937 210.91 180.215 208.532 182.826C202.186 189.797 193.24 192.986 184 192z"/>
<path style="fill:#efcdb2; stroke:none;" d="M237 173L238 174L237 173z"/>
<path style="fill:#e7a775; stroke:none;" d="M281 173L282 174L281 173z"/>
<path style="fill:#e3b583; stroke:none;" d="M161 174L162 175L161 174z"/>
<path style="fill:#f1cdb2; stroke:none;" d="M283 174L284 175L283 174z"/>
<path style="fill:#e59553; stroke:none;" d="M284 174C285.769 174.779 287.036 174.912 289 175C287.231 174.221 285.964 174.088 284 174z"/>
<path style="fill:#f1cdb2; stroke:none;" d="M289 174L290 175L289 174z"/>
<path style="fill:#e7b386; stroke:none;" d="M227 175L228 176L227 175z"/>
<path style="fill:#e1b583; stroke:none;" d="M137 176L138 177L137 176z"/>
<path style="fill:#e7c199; stroke:none;" d="M162 176L163 177L162 176z"/>
<path style="fill:#f1cdb2; stroke:none;" d="M326 176L327 177L326 176z"/>
<path style="fill:#e3b583; stroke:none;" d="M163 178L164 179L163 178z"/>
<path style="fill:#e3a973; stroke:none;" d="M226 178L227 179L226 178z"/>
<path style="fill:#ebbf9b; stroke:none;" d="M262 178L263 179L262 178z"/>
<path style="fill:#edbf9b; stroke:none;" d="M310 178L311 179L310 178z"/>
<path style="fill:#ebcfaf; stroke:none;" d="M136 179L137 180L136 179z"/>
<path style="fill:#ebbf9b; stroke:none;" d="M211 179L212 180L211 179z"/>
<path style="fill:#ebb187; stroke:none;" d="M325 179L326 180L325 179z"/>
<path style="fill:#e7b386; stroke:none;" d="M235 180L236 181L235 180z"/>
<path style="fill:#dfab6f; stroke:none;" d="M165 181L166 182L165 181z"/>
<path style="fill:#e59f61; stroke:none;" d="M264 181L265 182L264 181z"/>
<path style="fill:#e9a775; stroke:none;" d="M308 181L309 182L308 181z"/>
<path style="fill:#ebcfaf; stroke:none;" d="M166 182L167 183L166 182z"/>
<path style="fill:#edcdb1; stroke:none;" d="M225 182L226 183L225 182z"/>
<path style="fill:#e5a773; stroke:none;" d="M265 182L266 183L265 182z"/>
<path style="fill:#e9a775; stroke:none;" d="M307 182L308 183L307 182z"/>
<path style="fill:#e79b65; stroke:none;" d="M324 182L325 183L324 182z"/>
<path style="fill:#df8d27; stroke:none;" d="M135.333 183.667C135.278 183.722 135.222 184.778 135.667 184.333C135.722 184.278 135.778 183.222 135.333 183.667z"/>
<path style="fill:#ebcfaf; stroke:none;" d="M167 183L168 184L167 183z"/>
<path style="fill:#e19f60; stroke:none;" d="M208 183L209 184L208 183z"/>
<path style="fill:#edcdb1; stroke:none;" d="M234 183L235 184L234 183z"/>
<path style="fill:#e5a773; stroke:none;" d="M266 183L267 184L266 183z"/>
<path style="fill:#e7a775; stroke:none;" d="M306 183L307 184L306 183z"/>
<path style="fill:#ebcfaf; stroke:none;" d="M168 184L169 185L168 184z"/>
<path style="fill:#e19f60; stroke:none;" d="M207 184L208 185L207 184z"/>
<path style="fill:#e5a773; stroke:none;" d="M267 184L268 185L267 184z"/>
<path style="fill:#e7a775; stroke:none;" d="M305 184L306 185L305 184z"/>
<path style="fill:#e3b583; stroke:none;" d="M169 185L170 186L169 185z"/>
<path style="fill:#e5b385; stroke:none;" d="M224 185L225 186L224 185z"/>
<path style="fill:#e1b583; stroke:none;" d="M134 186L135 187L134 186z"/>
<path style="fill:#f1cdb2; stroke:none;" d="M323 186L324 187L323 186z"/>
<path style="fill:#e5b385; stroke:none;" d="M203 187L204 188L203 187z"/>
<path style="fill:#e5a773; stroke:none;" d="M271 187L272 188L271 187z"/>
<path style="fill:#e7a775; stroke:none;" d="M301 187L302 188L301 187z"/>
<path style="fill:#e19f60; stroke:none;" d="M223 188L224 189L223 188z"/>
<path style="fill:#ebbf9b; stroke:none;" d="M273 188L274 189L273 188z"/>
<path style="fill:#edbf9b; stroke:none;" d="M299 188L300 189L299 188z"/>
<path style="fill:#e9cfaf; stroke:none;" d="M133 189L134 190L133 189z"/>
<path style="fill:#dfa971; stroke:none;" d="M175 189L176 190L175 189z"/>
<path style="fill:#e9b387; stroke:none;" d="M275 189L276 190L275 189z"/>
<path style="fill:#e7a775; stroke:none;" d="M297 189L298 190L297 189z"/>
<path style="fill:#ebb187; stroke:none;" d="M322 189L323 190L322 189z"/>
<path style="fill:#e3b385; stroke:none;" d="M197 190L198 191L197 190z"/>
<path style="fill:#e5b385; stroke:none;" d="M232 190L233 191L232 190z"/>
<path style="fill:#ebbf9b; stroke:none;" d="M278 190L279 191L278 190z"/>
<path style="fill:#e9b187; stroke:none;" d="M294 190L295 191L294 190z"/>
<path style="fill:#e3b383; stroke:none;" d="M181 191L182 192L181 191z"/>
<path style="fill:#edcdb1; stroke:none;" d="M193 191L194 192L193 191z"/>
<path style="fill:#df8b35; stroke:none;" d="M194.667 191.333C194.222 191.778 195.278 191.722 195.333 191.667C195.778 191.222 194.722 191.278 194.667 191.333z"/>
<path style="fill:#e5a775; stroke:none;" d="M281.667 191.333C281.222 191.778 282.278 191.722 282.333 191.667C282.778 191.222 281.722 191.278 281.667 191.333z"/>
<path style="fill:#ebbf9b; stroke:none;" d="M283 191C284.248 191.685 284.548 191.749 286 192C284.752 191.315 284.452 191.251 283 191z"/>
<path style="fill:#edbf9b; stroke:none;" d="M287 191C288.248 191.685 288.548 191.749 290 192C288.752 191.315 288.452 191.251 287 191z"/>
<path style="fill:#e38d45; stroke:none;" d="M290.667 191.333C290.222 191.778 291.278 191.722 291.333 191.667C291.778 191.222 290.722 191.278 290.667 191.333z"/>
<path style="fill:#dd994f; stroke:none;" d="M186 192C187.248 192.685 187.548 192.749 189 193C187.752 192.315 187.452 192.251 186 192z"/>
<path style="fill:#edcdb1; stroke:none;" d="M222 192L223 193L222 192z"/>
<path style="fill:#e79b65; stroke:none;" d="M321 192L322 193L321 192z"/>
<path style="fill:#dd8d27; stroke:none;" d="M132 193L132 196C132.696 194.446 132.696 194.554 132 193z"/>
<path style="fill:#edcdb1; stroke:none;" d="M231 193L232 194L231 193z"/>
<path style="fill:#e19751; stroke:none;" d="M231 194L231 198C231.71 196.24 231.71 195.76 231 194z"/>
<path style="fill:#edbf9d; stroke:none;" d="M320 195L321 196L320 195z"/>
<path style="fill:#e5b385; stroke:none;" d="M219 198L220 199L219 198z"/>
<path style="fill:#ebbf9b; stroke:none;" d="M231 198L232 199L231 198z"/>
<path style="fill:#f1cdb2; stroke:none;" d="M318 198L319 199L318 198z"/>
<path style="fill:#e1a971; stroke:none;" d="M218 199L219 200L218 199z"/>
<path style="fill:#e7a575; stroke:none;" d="M317 199L318 200L317 199z"/>
<path style="fill:#e1a971; stroke:none;" d="M217 200L218 201L217 200z"/>
<path style="fill:#e9b187; stroke:none;" d="M316 200L317 201L316 200z"/>
<path style="fill:#e1a971; stroke:none;" d="M216 201L217 202L216 201z"/>
<path style="fill:#f1cdb2; stroke:none;" d="M315 201L316 202L315 201z"/>
<path style="fill:#e79b63; stroke:none;" d="M313 202L314 203L313 202z"/>
<path style="fill:#e3b385; stroke:none;" d="M213 203L214 204L213 203z"/>
<path style="fill:#e3a973; stroke:none;" d="M235 203L236 204L235 203z"/>
<path style="fill:#e7a575; stroke:none;" d="M311 203L312 204L311 203z"/>
<path style="fill:#edcdb1; stroke:none;" d="M211 204L212 205L211 204z"/>
<path style="fill:#e39553; stroke:none;" d="M238 204C244.194 206.599 253.314 205 260 205L308 205C301.806 202.401 292.686 204 286 204L238 204z"/>
<path style="fill:#edbf9b; stroke:none;" d="M308 204L309 205L308 204z"/>
<path style="fill:#e1c197; stroke:none;" d="M41 211C46.951 213.497 55.5797 212 62 212L109 212C103.049 209.503 94.4202 211 88 211L41 211z"/>
<path style="fill:#ebbf9b; stroke:none;" d="M236 211C241.951 213.497 250.58 212 257 212L303 212C297.049 209.503 288.42 211 282 211L236 211z"/>
<path style="fill:#efbd9d; stroke:none;" d="M333 211C338.951 213.497 347.58 212 354 212L401 212C395.049 209.503 386.42 211 380 211L333 211z"/>
<path style="fill:#df9517; stroke:none;" d="M37.6667 212.333C37.2222 212.778 38.2778 212.722 38.3333 212.667C38.7778 212.222 37.7222 212.278 37.6667 212.333z"/>
<path style="fill:#ffa303; stroke:none;" d="M21 245L63 245L63 212C54.4686 212 42.8869 209.986 35.0039 213.769C25.5262 218.316 21.839 235.378 21 245z"/>
<path style="fill:#fd9d07; stroke:none;" d="M63 212L63 245L110 245C111.776 237.254 119.589 222.925 114.821 215.344C112.047 210.932 105.425 212 101 212L63 212z"/>
<path style="fill:#fb970b; stroke:none;" d="M118 245L147 245L147 212C142.5 212 137.225 211.263 133 213.09C122.679 217.551 118.471 234.702 118 245z"/>
<path style="fill:#fb910d; stroke:none;" d="M147 212L147 245L174 245L174 212L147 212z"/>
<path style="fill:#f98f0f; stroke:none;" d="M174 212L174 245L207 245C208.598 237.277 216.227 223.673 211.972 216.109C209.7 212.069 205.072 212.022 201 212.001C192.001 211.953 183 212 174 212z"/>
<path style="fill:#df9f5f; stroke:none;" d="M208 212L209 213L208 212z"/>
<path style="fill:#edcdb1; stroke:none;" d="M231 212L232 213L231 212z"/>
<path style="fill:#f98913; stroke:none;" d="M215 245C219.107 245 224.961 246.058 228.787 244.397C232.889 242.616 235.667 236.155 239.004 233.105C244.433 228.142 250.978 226.449 258 225L258 212C249.809 212 237.465 209.705 230.001 213.457C219.471 218.749 217.665 234.727 215 245z"/>
<path style="fill:#f78117; stroke:none;" d="M258 212C258 216.57 259.224 222.261 255 225C262.848 228.324 270.026 227.798 276.826 234.301C291.561 248.391 286.722 271.171 269 280C270.258 285.282 270 290.6 270 296C276.377 296 282.875 296.689 287.786 291.786C294.476 285.11 294 274.683 294 266L294 212L258 212z"/>
<path style="fill:#f77f19; stroke:none;" d="M294 212L294 276C296.85 271.335 297.891 265.242 299.424 260C302.258 250.313 305.349 240.7 308.141 231C309.521 226.208 312.735 219.841 309.258 215.228C305.903 210.778 298.875 212 294 212z"/>
<path style="fill:#e7a775; stroke:none;" d="M306 212L307 213L306 212z"/>
<path style="fill:#ebb187; stroke:none;" d="M329 212L330 213L329 212z"/>
<path style="fill:#f5791b; stroke:none;" d="M328 297L343 297L343 212C339.378 212 331.593 210.571 329.028 213.742C327.702 215.381 328.014 218.043 328.001 220.001L328 236L328 297z"/>
<path style="fill:#f5771d; stroke:none;" d="M343 212L343 297L363 297L363 212L343 212z"/>
<path style="fill:#f3751f; stroke:none;" d="M363 212L363 297C366.674 297 375.43 298.607 377.972 295.397C379.301 293.719 378.986 290.992 378.999 289L379 273L379 212L363 212z"/>
<path style="fill:#f3731f; stroke:none;" d="M379 212L379 296C390.305 292.156 391 282.28 391 272L391 212L379 212z"/>
<path style="fill:#f37121; stroke:none;" d="M391 212L391 280C394.252 274.826 395.471 267.865 397.14 262C399.995 251.972 402.961 241.965 406.025 232C407.539 227.074 410.834 219.974 407.258 215.228C403.763 210.592 396.073 212 391 212z"/>
<path style="fill:#efaf89; stroke:none;" d="M404 212L405 213L404 212z"/>
<path style="fill:#d99b4d; stroke:none;" d="M113 213L114 214L113 213z"/>
<path style="fill:#e3b385; stroke:none;" d="M210 213L211 214L210 213z"/>
<path style="fill:#e5b385; stroke:none;" d="M229 213L230 214L229 213z"/>
<path style="fill:#e9a575; stroke:none;" d="M327 213L328 214L327 213z"/>
<path style="fill:#d39d49; stroke:none;" d="M33 214L34 215L33 214z"/>
<path style="fill:#d99b4d; stroke:none;" d="M130 214L131 215L130 214z"/>
<path style="fill:#e1a971; stroke:none;" d="M211 214L212 215L211 214z"/>
<path style="fill:#f1cdb2; stroke:none;" d="M325 214L326 215L325 214z"/>
<path style="fill:#f57b1b; stroke:none;" d="M319 297L328 297L328 214C317.37 218.208 318.996 227.548 319 237L319 297z"/>
<path style="fill:#dfb583; stroke:none;" d="M115 215L116 216L115 215z"/>
<path style="fill:#ebcdb1; stroke:none;" d="M212 215L213 216L212 215z"/>
<path style="fill:#e7bf9a; stroke:none;" d="M226 215L227 216L226 215z"/>
<path style="fill:#e79b65; stroke:none;" d="M324 215L325 216L324 215z"/>
<path style="fill:#e9cfaf; stroke:none;" d="M127 216L128 217L127 216z"/>
<path style="fill:#e1a973; stroke:none;" d="M225 216L226 217L225 216z"/>
<path style="fill:#f1bd9d; stroke:none;" d="M408 216L409 217L408 216z"/>
<path style="fill:#e7cfaf; stroke:none;" d="M116 217L117 218L116 217z"/>
<path style="fill:#e3b385; stroke:none;" d="M224 217L225 218L224 217z"/>
<path style="fill:#d79b4d; stroke:none;" d="M116 218L116 223C116.83 220.97 116.83 220.03 116 218z"/>
<path style="fill:#e7bf9a; stroke:none;" d="M213 218L214 219L213 218z"/>
<path style="fill:#e9b187; stroke:none;" d="M321 218L322 219L321 218z"/>
<path style="fill:#d3a559; stroke:none;" d="M28 219L29 220L28 219z"/>
<path style="fill:#dd9751; stroke:none;" d="M213.333 219.667C213.278 219.722 213.222 220.778 213.667 220.333C213.722 220.278 213.778 219.222 213.333 219.667z"/>
<path style="fill:#e1a971; stroke:none;" d="M222 220L223 221L222 220z"/>
<path style="fill:#d39f49; stroke:none;" d="M27 221L28 222L27 221z"/>
<path style="fill:#ebcdb1; stroke:none;" d="M213.333 221.667C213.278 221.722 213.222 222.778 213.667 222.333C213.722 222.278 213.778 221.222 213.333 221.667z"/>
<path style="fill:#e3b385; stroke:none;" d="M221 222L222 223L221 222z"/>
<path style="fill:#d9b77f; stroke:none;" d="M26 223L27 224L26 223z"/>
<path style="fill:#dbab6f; stroke:none;" d="M123 223L124 224L123 223z"/>
<path style="fill:#efcdb2; stroke:none;" d="M310 223L311 224L310 223z"/>
<path style="fill:#eb9767; stroke:none;" d="M408 223L409 224L408 223z"/>
<path style="fill:#f1cdb2; stroke:none;" d="M318 224L319 225L318 224z"/>
<path style="fill:#f3cbb3; stroke:none;" d="M408 224L409 225L408 224z"/>
<path style="fill:#d9a15d; stroke:none;" d="M115 225L116 226L115 225z"/>
<path style="fill:#e3b385; stroke:none;" d="M212 225L213 226L212 225z"/>
<path style="fill:#e7bf9a; stroke:none;" d="M220 225L221 226L220 225z"/>
<path style="fill:#e3cfad; stroke:none;" d="M25 226L26 227L25 226z"/>
<path style="fill:#e7cfaf; stroke:none;" d="M115 226L116 227L115 226z"/>
<path style="fill:#dcb583; stroke:none;" d="M122 226L123 227L122 226z"/>
<path style="fill:#edcdb1; stroke:none;" d="M251.667 226.333C251.222 226.778 252.278 226.722 252.333 226.667C252.778 226.222 251.722 226.278 251.667 226.333z"/>
<path style="fill:#e7b386; stroke:none;" d="M262 226L263 227L262 226z"/>
<path style="fill:#e9b187; stroke:none;" d="M309 226L310 227L309 226z"/>
<path style="fill:#d3a559; stroke:none;" d="M25 227L26 228L25 227z"/>
<path style="fill:#df9d61; stroke:none;" d="M247 227L248 228L247 227z"/>
<path style="fill:#e3a774; stroke:none;" d="M266 227L267 228L266 227z"/>
<path style="fill:#f57d19; stroke:none;" d="M318 227C312.833 242.884 308.265 258.969 303.576 275C301.967 280.498 297.691 288.407 301.742 293.772C305.374 298.58 313.733 297 319 297L319 249C319 242.314 320.599 233.194 318 227z"/>
<path style="fill:#efaf89; stroke:none;" d="M407 227L408 228L407 227z"/>
<path style="fill:#dd9f5f; stroke:none;" d="M211 228L212 229L211 228z"/>
<path style="fill:#ebbf9b; stroke:none;" d="M245 228L246 229L245 228z"/>
<path style="fill:#edcdb1; stroke:none;" d="M268 228L269 229L268 228z"/>
<path style="fill:#e7a575; stroke:none;" d="M317 228L318 229L317 228z"/>
<path style="fill:#dcb583; stroke:none;" d="M114 229L115 230L114 229z"/>
<path style="fill:#e7cfaf; stroke:none;" d="M121 229L122 230L121 229z"/>
<path style="fill:#ebbf9b; stroke:none;" d="M243 229L244 230L243 229z"/>
<path style="fill:#e5a575; stroke:none;" d="M308 229L309 230L308 229z"/>
<path style="fill:#d5ad6b; stroke:none;" d="M24 230L25 231L24 230z"/>
<path style="fill:#df9d61; stroke:none;" d="M241 230L242 231L241 230z"/>
<path style="fill:#e7b187; stroke:none;" d="M272 230L273 231L272 230z"/>
<path style="fill:#eba377; stroke:none;" d="M406 230L407 231L406 230z"/>
<path style="fill:#e9b187; stroke:none;" d="M316 231L317 232L316 231z"/>
<path style="fill:#dbab6f; stroke:none;" d="M113 232L114 233L113 232z"/>
<path style="fill:#ebcdb1; stroke:none;" d="M210 232L211 233L210 232z"/>
<path style="fill:#dd8b35; stroke:none;" d="M218.333 232.667C218.278 232.722 218.222 233.778 218.667 233.333C218.722 233.278 218.778 232.222 218.333 232.667z"/>
<path style="fill:#d7b77f; stroke:none;" d="M23 233L24 234L23 233z"/>
<path style="fill:#dba96f; stroke:none;" d="M120 233L121 234L120 233z"/>
<path style="fill:#e3a774; stroke:none;" d="M276 233L277 234L276 233z"/>
<path style="fill:#efcdb2; stroke:none;" d="M307 233L308 234L307 233z"/>
<path style="fill:#eb9767; stroke:none;" d="M405 233L406 234L405 233z"/>
<path style="fill:#e3a774; stroke:none;" d="M277 234L278 235L277 234z"/>
<path style="fill:#efcbb3; stroke:none;" d="M315 234L316 235L315 234z"/>
<path style="fill:#f3cbb3; stroke:none;" d="M405 234L406 235L405 234z"/>
<path style="fill:#d7a15d; stroke:none;" d="M112 235L113 236L112 235z"/>
<path style="fill:#e3b385; stroke:none;" d="M209 235L210 236L209 235z"/>
<path style="fill:#e7bf9a; stroke:none;" d="M217 235L218 236L217 235z"/>
<path style="fill:#e3a774; stroke:none;" d="M278 235L279 236L278 235z"/>
<path style="fill:#e3cfad; stroke:none;" d="M22 236L23 237L22 236z"/>
<path style="fill:#e7cfaf; stroke:none;" d="M112 236L113 237L112 236z"/>
<path style="fill:#dcb583; stroke:none;" d="M119 236L120 237L119 236z"/>
<path style="fill:#e7b187; stroke:none;" d="M306 236L307 237L306 236z"/>
<path style="fill:#d3a559; stroke:none;" d="M22 237L23 238L22 237z"/>
<path style="fill:#edaf89; stroke:none;" d="M404 237L405 238L404 237z"/>
<path style="fill:#dd9f5f; stroke:none;" d="M208 238L209 239L208 238z"/>
<path style="fill:#e7bf9a; stroke:none;" d="M233 238L234 239L233 238z"/>
<path style="fill:#e5a575; stroke:none;" d="M314 238L315 239L314 238z"/>
<path style="fill:#dcb583; stroke:none;" d="M111 239L112 240L111 239z"/>
<path style="fill:#e7cfaf; stroke:none;" d="M118 239L119 240L118 239z"/>
<path style="fill:#e19b63; stroke:none;" d="M281 239L282 240L281 239z"/>
<path style="fill:#e5a575; stroke:none;" d="M305 239L306 240L305 239z"/>
<path style="fill:#d5ad6b; stroke:none;" d="M21 240L22 241L21 240z"/>
<path style="fill:#eba377; stroke:none;" d="M403 240L404 241L403 240z"/>
<path style="fill:#e3a774; stroke:none;" d="M282 241L283 242L282 241z"/>
<path style="fill:#e9b187; stroke:none;" d="M313 241L314 242L313 241z"/>
<path style="fill:#d9a96d; stroke:none;" d="M110 242L111 243L110 242z"/>
<path style="fill:#ebcdb1; stroke:none;" d="M207 242L208 243L207 242z"/>
<path style="fill:#dd8b35; stroke:none;" d="M215.333 242.667C215.278 242.722 215.222 243.778 215.667 243.333C215.722 243.278 215.778 242.222 215.333 242.667z"/>
<path style="fill:#d59b4b; stroke:none;" d="M20 243C21.175 248.484 36.1428 246 41 246L109 246C103.049 243.503 94.4202 245 88 245L43 245C35.7365 245 26.5182 246.625 20 243z"/>
<path style="fill:#db974f; stroke:none;" d="M117 243C118.175 248.484 133.143 246 138 246L206 246C200.049 243.503 191.42 245 185 245L140 245C132.737 245 123.518 246.625 117 243z"/>
<path style="fill:#ebbf9b; stroke:none;" d="M256.667 243.333C256.222 243.778 257.278 243.722 257.333 243.667C257.778 243.222 256.722 243.278 256.667 243.333z"/>
<path style="fill:#e3a774; stroke:none;" d="M283 243L284 244L283 243z"/>
<path style="fill:#efcdb2; stroke:none;" d="M304 243L305 244L304 243z"/>
<path style="fill:#e99767; stroke:none;" d="M402 243L403 244L402 243z"/>
<path style="fill:#f78515; stroke:none;" d="M253.005 244.742C240.175 249.707 247.906 270.112 260.996 265.106C274.258 260.034 266.129 239.663 253.005 244.742z"/>
<path style="fill:#ebbf9b; stroke:none;" d="M261 244L262 245L261 244z"/>
<path style="fill:#efcbb3; stroke:none;" d="M312 244L313 245L312 244z"/>
<path style="fill:#f3cbb3; stroke:none;" d="M402 244L403 245L402 244z"/>
<path style="fill:#e1c197; stroke:none;" d="M109 245L110 246L109 245z"/>
<path style="fill:#ebcdb1; stroke:none;" d="M206 245L207 246L206 245z"/>
<path style="fill:#dd9751; stroke:none;" d="M215 245C219.471 246.876 225.183 246 230 246C225.529 244.124 219.817 245 215 245z"/>
<path style="fill:#edcdb1; stroke:none;" d="M263 245L264 246L263 245M249 246L250 247L249 246z"/>
<path style="fill:#e3a774; stroke:none;" d="M264 246L265 247L264 246z"/>
<path style="fill:#e7b187; stroke:none;" d="M284 246L285 247L284 246M303 246L304 247L303 246z"/>
<path style="fill:#edcdb1; stroke:none;" d="M248 247L249 248L248 247z"/>
<path style="fill:#e3a774; stroke:none;" d="M265 247L266 248L265 247z"/>
<path style="fill:#edaf89; stroke:none;" d="M401 247L402 248L401 247z"/>
<path style="fill:#edcdb1; stroke:none;" d="M266 248L267 249L266 248z"/>
<path style="fill:#e5a575; stroke:none;" d="M311 248L312 249L311 248z"/>
<path style="fill:#e19353; stroke:none;" d="M285.333 249.667C285.278 249.722 285.222 250.778 285.667 250.333C285.722 250.278 285.778 249.222 285.333 249.667z"/>
<path style="fill:#e5a575; stroke:none;" d="M302 249L303 250L302 249z"/>
<path style="fill:#ebbf9b; stroke:none;" d="M267 250L268 251L267 250z"/>
<path style="fill:#eba377; stroke:none;" d="M400 250L401 251L400 250z"/>
<path style="fill:#e1a773; stroke:none;" d="M246 251L247 252L246 251z"/>
<path style="fill:#ebbf9b; stroke:none;" d="M285 251L285 258C286.059 255.466 286.059 253.534 285 251z"/>
<path style="fill:#e7b187; stroke:none;" d="M310 251L311 252L310 251z"/>
<path style="fill:#efcbb3; stroke:none;" d="M301 253L302 254L301 253z"/>
<path style="fill:#e99767; stroke:none;" d="M399 253L400 254L399 253z"/>
<path style="fill:#ebbf9b; stroke:none;" d="M268.333 254.667C268.278 254.722 268.222 255.778 268.667 255.333C268.722 255.278 268.778 254.222 268.333 254.667z"/>
<path style="fill:#efcbb3; stroke:none;" d="M309 254L310 255L309 254z"/>
<path style="fill:#f3cbb3; stroke:none;" d="M399 254L400 255L399 254z"/>
<path style="fill:#df8737; stroke:none;" d="M246 256L246 259C246.696 257.446 246.696 257.554 246 256z"/>
<path style="fill:#e7b187; stroke:none;" d="M300 256L301 257L300 256z"/>
<path style="fill:#ebaf89; stroke:none;" d="M398 257L399 258L398 257z"/>
<path style="fill:#e18539; stroke:none;" d="M285.333 258.667C285.278 258.722 285.222 259.778 285.667 259.333C285.722 259.278 285.778 258.222 285.333 258.667z"/>
<path style="fill:#e5a575; stroke:none;" d="M308 258L309 259L308 258z"/>
<path style="fill:#ebbf9b; stroke:none;" d="M267 259L268 260L267 259z"/>
<path style="fill:#e3a575; stroke:none;" d="M299 259L300 260L299 259z"/>
<path style="fill:#e9a377; stroke:none;" d="M397 260L398 261L397 260z"/>
<path style="fill:#e7b187; stroke:none;" d="M307 261L308 262L307 261z"/>
<path style="fill:#edcdb1; stroke:none;" d="M265 262L266 263L265 262z"/>
<path style="fill:#e5b187; stroke:none;" d="M284 262L285 263L284 262z"/>
<path style="fill:#dbc195; stroke:none;" d="M14 263L15 264L14 263z"/>
<path style="fill:#df8f1b; stroke:none;" d="M15 263C20.951 265.497 29.5798 264 36 264L80 264C86.6259 264 97.5665 261.884 103 266C104.073 263.154 101.487 263.073 98.9954 263.005C93.6722 262.859 88.3253 263 83 263L15 263z"/>
<path style="fill:#dcb583; stroke:none;" d="M111 263L112 264L111 263z"/>
<path style="fill:#e18b1f; stroke:none;" d="M112 263C118.678 265.802 128.784 264 136 264L177 264C184.9 264 193.276 263.161 201 265C197.111 260.549 183.681 263 178 263L112 263z"/>
<path style="fill:#e38523; stroke:none;" d="M209 263C214.959 265.5 223.564 264 230 264C224.041 261.5 215.436 263 209 263z"/>
<path style="fill:#edcdb1; stroke:none;" d="M264 263L265 264L264 263z"/>
<path style="fill:#efcbb3; stroke:none;" d="M298 263L299 264L298 263z"/>
<path style="fill:#ffa503; stroke:none;" d="M14 264C12.7948 272.161 5.45216 283.847 8.74228 291.956C10.3604 295.944 14.0905 296.862 18 296.985C25.6515 297.225 33.3445 297 41 297L41 264L14 264z"/>
<path style="fill:#fda105; stroke:none;" d="M41 264L41 297L75 297L75 264L41 264z"/>
<path style="fill:#fd9d07; stroke:none;" d="M75 264L75 297C80.3586 296.996 86.3033 297.153 90.9846 294.11C98.959 288.927 102.589 273.003 103 264L75 264z"/>
<path style="fill:#fd9909; stroke:none;" d="M111 264C109.39 271.024 106.314 277.863 105.3 285C104.844 288.212 104.694 292.072 107.318 294.436C111.423 298.134 118.928 297 124 297L124 264L111 264z"/>
<path style="fill:#fb950b; stroke:none;" d="M124 264L124 297L147 297L147 264L124 264z"/>
<path style="fill:#fb910d; stroke:none;" d="M147 264L147 297L174 297L174 264L147 264z"/>
<path style="fill:#f98f0f; stroke:none;" d="M174 264L174 297C178.502 296.997 182.974 297.169 186.985 294.772C195.803 289.502 199.216 273.596 200 264L174 264z"/>
<path style="fill:#f98b11; stroke:none;" d="M270 296L270 281C260.687 282.254 252.789 284.645 244 279.64C240.548 277.675 237.388 275.033 234.927 271.91C233.208 269.729 232.021 266.556 229.61 265.028C226.023 262.754 215.227 263.108 211.225 264.318C207.931 265.313 207.42 269.135 206.576 272C204.807 277.998 198.404 291.919 207.058 295.397C212.278 297.495 220.436 296 226 296L270 296z"/>
<path style="fill:#efcbb3; stroke:none;" d="M306 264L307 265L306 264z"/>
<path style="fill:#f1cbb3; stroke:none;" d="M396 264L397 265L396 264z"/>
<path style="fill:#dda771; stroke:none;" d="M200 265L201 266L200 265z"/>
<path style="fill:#ebcdb1; stroke:none;" d="M208 265L209 266L208 265z"/>
<path style="fill:#e1a773; stroke:none;" d="M253 265L254 266L253 265z"/>
<path style="fill:#df9b61; stroke:none;" d="M260 265L261 266L260 265z"/>
<path style="fill:#e3a575; stroke:none;" d="M283 265L284 266L283 265z"/>
<path style="fill:#e3cfad; stroke:none;" d="M13 266L14 267L13 266z"/>
<path style="fill:#e5cdaf; stroke:none;" d="M103 266L104 267L103 266z"/>
<path style="fill:#dbb383; stroke:none;" d="M110 266L111 267L110 266z"/>
<path style="fill:#e7b187; stroke:none;" d="M297 266L298 267L297 266z"/>
<path style="fill:#d1a559; stroke:none;" d="M13 267L14 268L13 267z"/>
<path style="fill:#e9bd9b; stroke:none;" d="M282 267L283 268L282 267z"/>
<path style="fill:#ebaf89; stroke:none;" d="M395 267L396 268L395 267z"/>
<path style="fill:#db9f5f; stroke:none;" d="M199 268L200 269L199 268z"/>
<path style="fill:#e3a575; stroke:none;" d="M305 268L306 269L305 268z"/>
<path style="fill:#dcb583; stroke:none;" d="M102 269L103 270L102 269z"/>
<path style="fill:#e5cdaf; stroke:none;" d="M109 269L110 270L109 269z"/>
<path style="fill:#e19b63; stroke:none;" d="M281 269L282 270L281 269z"/>
<path style="fill:#e3a575; stroke:none;" d="M296 269L297 270L296 269z"/>
<path style="fill:#d3ad6b; stroke:none;" d="M12 270L13 271L12 270z"/>
<path style="fill:#e7bf9a; stroke:none;" d="M233 270L234 271L233 270z"/>
<path style="fill:#e9a377; stroke:none;" d="M394 270L395 271L394 270z"/>
<path style="fill:#e7b187; stroke:none;" d="M304 271L305 272L304 271z"/>
<path style="fill:#d7a96d; stroke:none;" d="M101 272L102 273L101 272z"/>
<path style="fill:#e5bf9b; stroke:none;" d="M198 272L199 273L198 272z"/>
<path style="fill:#e1b385; stroke:none;" d="M206 272L207 273L206 272z"/>
<path style="fill:#d5b57f; stroke:none;" d="M11 273L12 274L11 273z"/>
<path style="fill:#d7a96d; stroke:none;" d="M108 273L109 274L108 273z"/>
<path style="fill:#e1a573; stroke:none;" d="M278 273L279 274L278 273z"/>
<path style="fill:#edcbb3; stroke:none;" d="M295 273L296 274L295 273z"/>
<path style="fill:#dd9d61; stroke:none;" d="M236 274L237 275L236 274z"/>
<path style="fill:#e1a573; stroke:none;" d="M277 274L278 275L277 274z"/>
<path style="fill:#edcbb3; stroke:none;" d="M303 274L304 275L303 274z"/>
<path style="fill:#f1cbb3; stroke:none;" d="M393 274L394 275L393 274z"/>
<path style="fill:#d59b4b; stroke:none;" d="M100 275L101 276L100 275z"/>
<path style="fill:#dda771; stroke:none;" d="M197 275L198 276L197 275z"/>
<path style="fill:#ebcdb1; stroke:none;" d="M205 275L206 276L205 275z"/>
<path style="fill:#e1a573; stroke:none;" d="M276 275L277 276L276 275z"/>
<path style="fill:#e19b63; stroke:none;" d="M303 275L304 276L303 275z"/>
<path style="fill:#e1cfad; stroke:none;" d="M10 276L11 277L10 276z"/>
<path style="fill:#e5cdaf; stroke:none;" d="M100 276L101 277L100 276z"/>
<path style="fill:#dbb383; stroke:none;" d="M107 276L108 277L107 276z"/>
<path style="fill:#e5b187; stroke:none;" d="M294 276L295 277L294 276z"/>
<path style="fill:#cfa559; stroke:none;" d="M10 277L11 278L10 277z"/>
<path style="fill:#ebaf89; stroke:none;" d="M392 277L393 278L392 277z"/>
<path style="fill:#db9f5f; stroke:none;" d="M196 278L197 279L196 278z"/>
<path style="fill:#dfa773; stroke:none;" d="M241 278L242 279L241 278z"/>
<path style="fill:#e3b187; stroke:none;" d="M272 278L273 279L272 278z"/>
<path style="fill:#e3a575; stroke:none;" d="M302 278L303 279L302 278z"/>
<path style="fill:#dcb583; stroke:none;" d="M99 279L100 280L99 279z"/>
<path style="fill:#e5cdaf; stroke:none;" d="M106 279L107 280L106 279z"/>
<path style="fill:#ebcbb1; stroke:none;" d="M243 279L244 280L243 279z"/>
<path style="fill:#e19b63; stroke:none;" d="M293 279L294 280L293 279z"/>
<path style="fill:#d1972b; stroke:none;" d="M9.33333 280.667C9.2778 280.722 9.22221 281.778 9.66667 281.333C9.72226 281.278 9.77778 280.222 9.33333 280.667z"/>
<path style="fill:#ebcbb1; stroke:none;" d="M245 280L246 281L245 280z"/>
<path style="fill:#e9a377; stroke:none;" d="M391 280L392 281L391 280z"/>
<path style="fill:#dfa773; stroke:none;" d="M247 281L248 282L247 281z"/>
<path style="fill:#e1a573; stroke:none;" d="M266 281L267 282L266 281z"/>
<path style="fill:#e5b187; stroke:none;" d="M301 281L302 282L301 281z"/>
<path style="fill:#d7a96d; stroke:none;" d="M98 282L99 283L98 282z"/>
<path style="fill:#e3bf99; stroke:none;" d="M195 282L196 283L195 282z"/>
<path style="fill:#e1b385; stroke:none;" d="M203 282L204 283L203 282z"/>
<path style="fill:#e3b185; stroke:none;" d="M250.667 282.333C250.222 282.778 251.278 282.722 251.333 282.667C251.778 282.222 250.722 282.278 250.667 282.333z"/>
<path style="fill:#e7bd9b; stroke:none;" d="M261.667 282.333C261.222 282.778 262.278 282.722 262.333 282.667C262.778 282.222 261.722 282.278 261.667 282.333z"/>
<path style="fill:#dbc195; stroke:none;" d="M8 283L9 284L8 283z"/>
<path style="fill:#d7a96d; stroke:none;" d="M105 283L106 284L105 283z"/>
<path style="fill:#edcbb1; stroke:none;" d="M292 283L293 284L292 283z"/>
<path style="fill:#f1cbb3; stroke:none;" d="M390 284L391 285L390 284z"/>
<path style="fill:#d3994b; stroke:none;" d="M97 285L98 286L97 285z"/>
<path style="fill:#dda771; stroke:none;" d="M194 285L195 286L194 285z"/>
<path style="fill:#e8cdb1; stroke:none;" d="M202 285L203 286L202 285z"/>
<path style="fill:#d3994b; stroke:none;" d="M104 286L104 290C104.71 288.241 104.71 287.759 104 286z"/>
<path style="fill:#d9974f; stroke:none;" d="M202.333 286.667C202.278 286.722 202.222 287.778 202.667 287.333C202.722 287.278 202.778 286.222 202.333 286.667z"/>
<path style="fill:#e9bd9b; stroke:none;" d="M291 286L292 287L291 286z"/>
<path style="fill:#dbc195; stroke:none;" d="M7 287L7 291C7.71021 289.241 7.71021 288.759 7 287z"/>
<path style="fill:#dfbf97; stroke:none;" d="M96 288L97 289L96 288z"/>
<path style="fill:#e9bd9b; stroke:none;" d="M290 288L291 289L290 288z"/>
<path style="fill:#d99f5f; stroke:none;" d="M192 289L193 290L192 289z"/>
<path style="fill:#d9974f; stroke:none;" d="M202.333 289.667C202.278 289.722 202.222 290.778 202.667 290.333C202.722 290.278 202.778 289.222 202.333 289.667z"/>
<path style="fill:#dfbf97; stroke:none;" d="M104 290L105 291L104 290z"/>
<path style="fill:#efbd9d; stroke:none;" d="M387 290L388 291L387 290z"/>
<path style="fill:#e8cdb1; stroke:none;" d="M202 291L203 292L202 291z"/>
<path style="fill:#e7a177; stroke:none;" d="M386 291L387 292L386 291z"/>
<path style="fill:#cd9d47; stroke:none;" d="M8 292L9 293L8 292z"/>
<path style="fill:#e5cdaf; stroke:none;" d="M93 292L94 293L93 292z"/>
<path style="fill:#e7a177; stroke:none;" d="M385 292L386 293L385 292z"/>
<path style="fill:#e3bf99; stroke:none;" d="M203 293L204 294L203 293z"/>
<path style="fill:#e9af89; stroke:none;" d="M384 293L385 294L384 293z"/>
<path style="fill:#e1cfad; stroke:none;" d="M9 294L10 295L9 294z"/>
<path style="fill:#d3994b; stroke:none;" d="M90 294L91 295L90 294z"/>
<path style="fill:#d7a96d; stroke:none;" d="M106 294L107 295L106 294z"/>
<path style="fill:#dba771; stroke:none;" d="M187 294L188 295L187 294z"/>
<path style="fill:#dda771; stroke:none;" d="M204 294L205 295L204 294z"/>
<path style="fill:#e3b187; stroke:none;" d="M284 294L285 295L284 294z"/>
<path style="fill:#e1cfad; stroke:none;" d="M10 295L11 296L10 295z"/>
<path style="fill:#e5cdaf; stroke:none;" d="M107 295L108 296L107 295z"/>
<path style="fill:#e3bf99; stroke:none;" d="M205 295L206 296L205 295z"/>
<path style="fill:#e1a573; stroke:none;" d="M282 295L283 296L282 295z"/>
<path style="fill:#edbb9d; stroke:none;" d="M381 295L382 296L381 295z"/>
<path style="fill:#dbc195; stroke:none;" d="M12 296L13 297L12 296z"/>
<path style="fill:#d5912f; stroke:none;" d="M84 296C85.2484 296.685 85.5484 296.749 87 297C85.7516 296.315 85.4516 296.251 84 296z"/>
<path style="fill:#d78f31; stroke:none;" d="M109 296C110.248 296.685 110.548 296.749 112 297C110.752 296.315 110.452 296.251 109 296z"/>
<path style="fill:#dfb383; stroke:none;" d="M183 296L184 297L183 296z"/>
<path style="fill:#e5bf9b; stroke:none;" d="M207 296L208 297L207 296z"/>
<path style="fill:#e38125; stroke:none;" d="M208 296C214.194 298.599 223.314 297 230 297L278 297C271.806 294.401 262.686 296 256 296L208 296z"/>
<path style="fill:#e1a573; stroke:none;" d="M278.667 296.333C278.222 296.778 279.278 296.722 279.333 296.667C279.778 296.222 278.722 296.278 278.667 296.333z"/>
<path style="fill:#e59765; stroke:none;" d="M378 296L379 297L378 296z"/>
<path style="fill:#e5bf9b; stroke:none;" d="M208 303C213.951 305.497 222.58 304 229 304L276 304C270.049 301.503 261.42 303 255 303L208 303z"/>
<path style="fill:#f98d11; stroke:none;" d="M195 389L209 389L209 304C203.22 304.3 196.923 306.914 195.028 313.001C193.047 319.364 195 329.266 195 336L195 389z"/>
<path style="fill:#f98b11; stroke:none;" d="M209 304L209 389L223 389L223 304L209 304z"/>
<path style="fill:#f98913; stroke:none;" d="M223 304L223 389L240 389L240 304L223 304z"/>
<path style="fill:#f78715; stroke:none;" d="M240 304L240 389L251 389L251 304L240 304z"/>
<path style="fill:#f78515; stroke:none;" d="M251 304L251 388C260.129 387.5 263.551 380.949 266.024 373C270.574 358.376 274.879 343.669 279.28 329C281.097 322.946 285.96 313.183 281.907 307.228C279.626 303.878 275.623 304.02 272 304.001L251 304z"/>
<path style="fill:#df9b63; stroke:none;" d="M282 307L283 308L282 307z"/>
<path style="fill:#dd9353; stroke:none;" d="M283.333 309.667C283.278 309.722 283.222 310.778 283.667 310.333C283.722 310.278 283.778 309.222 283.333 309.667z"/>
<path style="fill:#d99d5f; stroke:none;" d="M195 311L196 312L195 311z"/>
<path style="fill:#e1a573; stroke:none;" d="M283.333 313.667C283.278 313.722 283.222 314.778 283.667 314.333C283.722 314.278 283.778 313.222 283.333 313.667z"/>
<path style="fill:#e8cdb1; stroke:none;" d="M193 315L194 316L193 315z"/>
<path style="fill:#f98f0f; stroke:none;" d="M194 315C187.697 331.461 183.374 349.077 178.424 366C176.761 371.688 172.588 380.274 176.742 385.772C180.499 390.744 189.55 389 195 389L195 338C195 331.049 196.701 321.436 194 315z"/>
<path style="fill:#ebcbb1; stroke:none;" d="M282 318L283 319L282 318z"/>
<path style="fill:#dba771; stroke:none;" d="M192 319L193 320L192 319z"/>
<path style="fill:#e3b187; stroke:none;" d="M281 321L282 322L281 321z"/>
<path style="fill:#ddb185; stroke:none;" d="M191 322L192 323L191 322z"/>
<path style="fill:#dd9963; stroke:none;" d="M280 324L281 325L280 324z"/>
<path style="fill:#e7cbb1; stroke:none;" d="M190 325L191 326L190 325z"/>
<path style="fill:#e7bd9b; stroke:none;" d="M279 328L280 329L279 328z"/>
<path style="fill:#dba771; stroke:none;" d="M189 329L190 330L189 329z"/>
<path style="fill:#dfa573; stroke:none;" d="M278 331L279 332L278 331z"/>
<path style="fill:#ddb185; stroke:none;" d="M188 332L189 333L188 332z"/>
<path style="fill:#dd9b63; stroke:none;" d="M277 334L278 335L277 334z"/>
<path style="fill:#e8cdb1; stroke:none;" d="M187 335L188 336L187 335z"/>
<path style="fill:#e5bd9b; stroke:none;" d="M276 338L277 339L276 338z"/>
<path style="fill:#d9a771; stroke:none;" d="M186 339L187 340L186 339z"/>
<path style="fill:#dfa573; stroke:none;" d="M275 341L276 342L275 341z"/>
<path style="fill:#ddb185; stroke:none;" d="M185 342L186 343L185 342z"/>
<path style="fill:#db9963; stroke:none;" d="M274 344L275 345L274 344z"/>
<path style="fill:#e7cbb1; stroke:none;" d="M184 345L185 346L184 345z"/>
<path style="fill:#e5bd9b; stroke:none;" d="M273 348L274 349L273 348z"/>
<path style="fill:#d9a771; stroke:none;" d="M183 349L184 350L183 349z"/>
<path style="fill:#dda373; stroke:none;" d="M272 351L273 352L272 351z"/>
<path style="fill:#dbb183; stroke:none;" d="M182 352L183 353L182 352z"/>
<path style="fill:#db9b63; stroke:none;" d="M271 354L272 355L271 354z"/>
<path style="fill:#e7cbb1; stroke:none;" d="M181 355L182 356L181 355z"/>
<path style="fill:#e5bd9b; stroke:none;" d="M270 358L271 359L270 358z"/>
<path style="fill:#d7a771; stroke:none;" d="M180 359L181 360L180 359z"/>
<path style="fill:#dda573; stroke:none;" d="M269 361L270 362L269 361z"/>
<path style="fill:#dbb183; stroke:none;" d="M179 362L180 363L179 362z"/>
<path style="fill:#db9961; stroke:none;" d="M268 364L269 365L268 364z"/>
<path style="fill:#e5cbb1; stroke:none;" d="M178 365L179 366L178 365z"/>
<path style="fill:#e5bd9b; stroke:none;" d="M267 368L268 369L267 368z"/>
<path style="fill:#d7a771; stroke:none;" d="M177 369L178 370L177 369z"/>
<path style="fill:#dda373; stroke:none;" d="M266 371L267 372L266 371z"/>
<path style="fill:#dbb183; stroke:none;" d="M176 372L177 373L176 372z"/>
<path style="fill:#db9961; stroke:none;" d="M265 374L266 375L265 374z"/>
<path style="fill:#e5cbb1; stroke:none;" d="M175 375L176 376L175 375z"/>
<path style="fill:#e9cbb1; stroke:none;" d="M264 378L265 379L264 378z"/>
<path style="fill:#dfbd99; stroke:none;" d="M174 379L174 382C174.696 380.446 174.696 380.554 174 379z"/>
<path style="fill:#e3bd9b; stroke:none;" d="M263 380L264 381L263 380z"/>
<path style="fill:#e9cbb1; stroke:none;" d="M261 383L262 384L261 383z"/>
<path style="fill:#d7a771; stroke:none;" d="M175 384L176 385L175 384z"/>
<path style="fill:#e9cbb1; stroke:none;" d="M260 384L261 385L260 384z"/>
<path style="fill:#e5cbb1; stroke:none;" d="M179 388L180 389L179 388z"/>
<path style="fill:#d98537; stroke:none;" d="M251.667 388.333C251.222 388.778 252.278 388.722 252.333 388.667C252.778 388.222 251.722 388.278 251.667 388.333z"/>
<path style="fill:#dfaf85; stroke:none;" d="M253 388L254 389L253 388z"/>
</svg>
